<svg width="919" height="919" viewBox="0 0 919 919" fill="none" xmlns="http://www.w3.org/2000/svg">
<path fill-rule="evenodd" clip-rule="evenodd" d="M459.5 879C691.183 879 879 691.183 879 459.5C879 227.817 691.183 40 459.5 40C227.817 40 40 227.817 40 459.5C40 691.183 227.817 879 459.5 879ZM459.5 919C713.275 919 919 713.275 919 459.5C919 205.725 713.275 0 459.5 0C205.725 0 0 205.725 0 459.5C0 713.275 205.725 919 459.5 919Z" fill="url(#paint0_linear_410_29)"/>
<path d="M202 238.857C202 218.471 218.471 202 238.857 202C503.538 202 718 416.462 718 681.143C718 701.529 701.529 718 681.143 718C660.756 718 644.286 701.529 644.286 681.143C644.286 457.236 462.764 275.714 238.857 275.714C218.471 275.714 202 259.244 202 238.857ZM202 644.286C202 624.735 209.766 605.986 223.59 592.162C237.415 578.338 256.164 570.571 275.714 570.571C295.265 570.571 314.014 578.338 327.838 592.162C341.662 605.986 349.429 624.735 349.429 644.286C349.429 663.836 341.662 682.585 327.838 696.41C314.014 710.234 295.265 718 275.714 718C256.164 718 237.415 710.234 223.59 696.41C209.766 682.585 202 663.836 202 644.286ZM238.857 349.429C422.106 349.429 570.571 497.894 570.571 681.143C570.571 701.529 554.101 718 533.714 718C513.328 718 496.857 701.529 496.857 681.143C496.857 538.667 381.333 423.143 238.857 423.143C218.471 423.143 202 406.672 202 386.286C202 365.899 218.471 349.429 238.857 349.429Z" fill="url(#paint1_linear_410_29)"/>
<defs>
<linearGradient id="paint0_linear_410_29" x1="613.242" y1="274.057" x2="309.406" y2="561.747" gradientUnits="userSpaceOnUse">
<stop stop-color="#C68CFF"/>
<stop offset="1" stop-color="#8CD9FF"/>
</linearGradient>
<linearGradient id="paint1_linear_410_29" x1="613.242" y1="274.057" x2="309.406" y2="561.747" gradientUnits="userSpaceOnUse">
<stop stop-color="#C68CFF"/>
<stop offset="1" stop-color="#8CD9FF"/>
</linearGradient>
</defs>
</svg>
