<svg width="919" height="919" viewBox="0 0 919 919" fill="none" xmlns="http://www.w3.org/2000/svg">
<rect width="919" height="919" rx="80" fill="url(#paint0_linear_436_22)"/>
<path d="M751.659 201.195C751.659 260.326 703.724 308.261 644.594 308.261C585.463 308.261 537.528 260.326 537.528 201.195C537.528 142.065 585.463 94.1299 644.594 94.1299C703.724 94.1299 751.659 142.065 751.659 201.195Z" fill="white"/>
<path d="M154.832 193.591C154.832 139.084 200.302 94.8972 256.393 94.8972C312.483 94.8972 357.953 139.084 357.953 193.591V352.514H663.528C690.471 352.514 714.879 363.602 732.621 381.554C750.608 399.301 761.719 423.733 761.719 450.705V727.448C761.719 781.677 716.804 825.638 661.397 825.638C605.991 825.638 561.075 781.677 561.075 727.448V600.223H560.18C556.131 547.954 512.433 506.801 459.125 506.801C405.816 506.801 362.119 547.953 358.069 600.223H357.953V601.891C357.827 603.966 357.762 606.057 357.762 608.163V733.045C354.52 784.711 310.375 825.638 256.393 825.638C200.302 825.638 154.832 781.452 154.832 726.944V193.591Z" fill="white"/>
<defs>
<linearGradient id="paint0_linear_436_22" x1="795.951" y1="986.767" x2="375.677" y2="-58.4083" gradientUnits="userSpaceOnUse">
<stop offset="0.265" stop-color="#191272"/>
<stop offset="1" stop-color="#ED0342"/>
</linearGradient>
</defs>
</svg>
